<svg id="a4b1c2bf-bae1-4f81-84c5-1247d9d08076" data-name="Layer 1" xmlns="http://www.w3.org/2000/svg" width="603.50209" height="698.68496" viewBox="0 0 603.50209 698.68496"><path d="M392.05657,383.62012c-30.66552-30.188-43.61718-61.68164-36.47021-88.67871,9.17187-34.645,49.918-58.59912,111.79053-65.72022l.22851,1.98731C406.59417,238.23,366.46966,261.64648,357.52,295.45312c-6.95556,26.27344,5.80811,57.07911,35.93994,86.74219Z" transform="translate(-298.24896 -100.65752)" fill="#f0f0f0"/><path d="M687.92718,490.77832c-38.27246,0-79.86231-5.6875-121.17285-16.624-51.08594-13.52442-97.92627-33.938-135.457-59.03467l1.11132-1.66211c37.3501,24.9751,83.98291,45.29541,134.85743,58.76318C613.24066,484.39258,659.56,490.03223,701.19964,488.544l.07227,1.998Q694.67571,490.77931,687.92718,490.77832Z" transform="translate(-298.24896 -100.65752)" fill="#f0f0f0"/><path d="M775.72894,478.20117l-.64063-1.89453c34.22949-11.57324,55.63867-30.21631,61.91309-53.91553,7.97558-30.12744-9.35156-65.08838-48.79-98.44287-39.63965-33.52392-96.80078-61.34033-160.95606-78.32422l.51172-1.93359c64.43555,17.05859,121.875,45.019,161.73535,78.731,40.06153,33.88086,57.61719,69.56591,49.43262,100.48144C832.48089,447.28174,810.62444,466.40332,775.72894,478.20117Z" transform="translate(-298.24896 -100.65752)" fill="#f0f0f0"/><path d="M461.4223,491.61426C386.21917,458.26074,328.26946,414.98877,298.249,369.76855l1.666-1.10644c29.813,44.90723,87.4585,87.92285,162.31787,121.124Z" transform="translate(-298.24896 -100.65752)" fill="#f0f0f0"/><path d="M725.8305,549.39648q-11.63526,0-23.668-.51953l.08594-1.998c59.86426,2.59179,112.68359-4.57227,152.75781-20.72168l.74805,1.85547C820.79632,542.09863,776.23968,549.39648,725.8305,549.39648Z" transform="translate(-298.24896 -100.65752)" fill="#f0f0f0"/><path d="M682.19671,231.01465c-12.42969-4.04688-25.21484-7.81494-38-11.19971C570.623,200.3374,498.29925,193.42188,435.04144,199.81982l-.20118-1.99023c63.49366-6.41895,136.065.51318,209.86817,20.05176,12.82129,3.39453,25.64258,7.17334,38.10742,11.23193Z" transform="translate(-298.24896 -100.65752)" fill="#f0f0f0"/><g id="bbad7e70-54c1-4048-8571-53dfc253e7d3" data-name="Group 221"><path id="e6543f03-6856-4626-b447-7ad17e389386" data-name="Path 2938" d="M647.634,414.03945l17-2,6,52,15.319,71.808a11.00008,11.00008,0,1,1-11.933,1.5l-15.386-42.308Z" transform="translate(-298.24896 -100.65752)" fill="#ffb6b6"/><path id="a8e9f012-3ce0-42b4-b439-9edf0233d80f" data-name="Path 2939" d="M622.938,784.75347h14.006l6.664-54.025H622.936Z" transform="translate(-298.24896 -100.65752)" fill="#ffb6b6"/><path id="e9c22397-9f37-4a94-b9fa-bf98e0f42746" data-name="Path 2940" d="M619.366,798.32748h45.162v-.571a17.579,17.579,0,0,0-17.577-17.578H619.366Z" transform="translate(-298.24896 -100.65752)" fill="#2f2e41"/><path id="b7d3ba35-1ee3-49cd-b9bb-0cba86735b51" data-name="Path 2941" d="M515.448,777.11443l13.752,2.655,16.788-51.78-20.3-3.919Z" transform="translate(-298.24896 -100.65752)" fill="#ffb6b6"/><path id="bb63555a-fca9-4d1a-a242-34813a5c4184" data-name="Path 2942" d="M509.37,789.76748l44.343,8.563.108-.561a17.58,17.58,0,0,0-13.926-20.593h0l-27.083-5.23Z" transform="translate(-298.24896 -100.65752)" fill="#2f2e41"/><path id="eed23308-5508-4367-8d9d-22bce5e6988e" data-name="Path 2943" d="M644.9,328.82644l-8.138,15.614-60.951-13.443,6.677-30.273c5.285-23.962,26.472-41.267,50.434-35.982s35.142,28.705,29.857,52.667l-9.822,30.6-9.938-2.192Z" transform="translate(-298.24896 -100.65752)" fill="#2f2e41"/><path id="a7094819-b1c3-4363-af89-8f04b947cfd4" data-name="Path 2944" d="M666.634,501.04046s6,30-2,74-10,63-10,63,6,7,2,11,0,12,0,12l-9,97-31-5,4-91s-4-8-2-10-2-14-2-14l-5-95-31,104s3,4,0,7-9,18-9,18l-20,70-32-6,18-80s-2-5,1-8a7.83394,7.83394,0,0,0,2-7s-3-3,1-7,6-20,6-20,3-107,13-113S666.634,501.04046,666.634,501.04046Z" transform="translate(-298.24896 -100.65752)" fill="#2f2e41"/><circle id="b35558a4-54cf-4578-acfb-d2483d07ae53" data-name="Ellipse 569" cx="323.16807" cy="206.92093" r="28" fill="#ffb6b6"/><path id="b60d66b8-5b96-43ca-ac3b-c454927d6af1" data-name="Path 2945" d="M581.957,343.42044s-20.324-2.381-26.324,3.619l6,121s-4,3-2,10a28.56751,28.56751,0,0,1,0,14s-6,7-3,10,111,1,111,1,4-7-2-11-3-15-3-15,2-3-3-8-9-46-9-46l13-50s-13.086-14.771-28.043-15.885Z" transform="translate(-298.24896 -100.65752)" fill="#e6e6e6"/><path id="a6863ad0-c3b7-47b5-abfe-317a886379ae" data-name="Path 2946" d="M648.139,373.72644l15.493-.688s9,18,10,34l5.507,59.688-35.507,5.312Z" transform="translate(-298.24896 -100.65752)" fill="#e6e6e6"/><path id="eb1655c0-6c01-4103-90ca-71645fb1b888" data-name="Path 2947" d="M645.406,308.96745l10.4-13.382a10.911,10.911,0,0,0-8.282-12.969l-39.292-8.667a10.912,10.912,0,0,0-12.97,8.282l-.022.1,2.814,16.159.494-.088c24.385-4.348,31.331-2.818,46.459,10.226Z" transform="translate(-298.24896 -100.65752)" fill="#2f2e41"/><path id="a3ae8b48-9817-427a-b27e-d3c5fb280df5" data-name="Path 2948" d="M540.758,522.78045l1.875-78.74,2-56,24,3-12.889,133.845a11,11,0,1,1-15.45752-1.75067q.2309-.184.4715-.35532Z" transform="translate(-298.24896 -100.65752)" fill="#ffb6b6"/><path id="bf899f35-5185-49c6-a976-989f7d88d896" data-name="Path 2949" d="M573.14,348.72644l-17.507-1.688s-3,0-6,10-19.492,115.688-19.492,115.688l36.493,3.312Z" transform="translate(-298.24896 -100.65752)" fill="#e6e6e6"/></g><circle id="a77c82a3-415d-4caa-9233-e32e1db91aa5" data-name="Ellipse 563" cx="109.16609" cy="65.03493" r="45.498" fill="#0079c1"/><path d="M418.087,193.65362a46.49805,46.49805,0,1,1,46.498-46.498A46.55065,46.55065,0,0,1,418.087,193.65362Zm0-90.9961a44.49805,44.49805,0,1,0,44.498,44.49805A44.54859,44.54859,0,0,0,418.087,102.65752Z" transform="translate(-298.24896 -100.65752)" fill="#3f3d56"/><circle id="e13cd765-b4c0-4534-a541-c81d5c839cfa" data-name="Ellipse 565" cx="527.83012" cy="227.41992" r="31.244" fill="#0079c1"/><path d="M833.408,347.59258a32.24414,32.24414,0,1,1,32.24414-32.24414A32.28068,32.28068,0,0,1,833.408,347.59258Zm0-62.48828a30.24414,30.24414,0,1,0,30.24414,30.24414A30.27823,30.27823,0,0,0,833.408,285.1043Z" transform="translate(-298.24896 -100.65752)" fill="#3f3d56"/><path id="a4825862-e3c0-4f67-a867-5c70b57c4b38" data-name="Path 2960" d="M900.751,799.34248h-600a1,1,0,1,1,0-2h600a1,1,0,0,1,0,2Z" transform="translate(-298.24896 -100.65752)" fill="#cacaca"/><g id="ad49f613-e65c-4395-95a8-c9f49d448c92" data-name="Group 58"><path id="e21cbd7f-6a34-4573-9922-b718acbf24d5" data-name="Path 438" d="M858.94706,758.66947a19.47408,19.47408,0,0,1-18.806-3.313c-6.587-5.528-8.652-14.637-10.332-23.07l-4.97-24.945,10.405,7.165c7.483,5.152,15.134,10.47,20.316,17.933s7.443,17.651,3.28,25.727" transform="translate(-298.24896 -100.65752)" fill="#fd6584"/><path id="e5a55c2f-9c89-4a0d-9ef5-f99d8e189481" data-name="Path 439" d="M857.34005,790.60551c1.31-9.542,2.657-19.206,1.738-28.85-.816-8.565-3.429-16.93-8.749-23.789a39.57383,39.57383,0,0,0-10.153-9.2c-1.015-.641-1.95.968-.939,1.606a37.62185,37.62185,0,0,1,14.881,17.956c3.24,8.241,3.76,17.224,3.2,25.978-.338,5.294-1.053,10.553-1.774,15.806a.964.964,0,0,0,.65,1.144.936.936,0,0,0,1.144-.65Z" transform="translate(-298.24896 -100.65752)" fill="#f2f2f2"/><path id="a182c25b-15e9-4348-af44-ff101716c489" data-name="Path 442" d="M847.91305,775.29649a14.336,14.336,0,0,1-12.491,6.447c-6.323-.3-11.595-4.713-16.34-8.9l-14.035-12.396,9.289-.444c6.68-.32,13.533-.618,19.9,1.442s12.231,7.018,13.394,13.6" transform="translate(-298.24896 -100.65752)" fill="#e6e6e6"/><path id="ea11e70e-c6f0-4207-831b-ce461eb0c24e" data-name="Path 443" d="M861.042,796.09147c-6.3-11.156-13.618-23.555-26.685-27.518a29.77876,29.77876,0,0,0-11.224-1.159c-1.192.1-.894,1.94.3,1.837a27.66482,27.66482,0,0,1,17.912,4.739c5.051,3.438,8.983,8.217,12.311,13.286,2.039,3.1,3.865,6.341,5.691,9.573C859.92605,797.88151,861.632,797.13645,861.042,796.09147Z" transform="translate(-298.24896 -100.65752)" fill="#f2f2f2"/></g><g id="bcae903b-776e-4e7d-aa16-aa55af489a01" data-name="Group 222"><path id="fba3f824-2ab6-48f4-ae6c-7019c6fad5c9" data-name="Path 2961" d="M364.248,771.657a14.336,14.336,0,0,0,13.96062-1.64007c5.07425-3.78449,6.97639-10.39054,8.56966-16.51565l4.70658-18.12088-7.94921,4.82625c-5.71691,3.47012-11.565,7.05522-15.69149,12.32341s-6.2142,12.65074-3.49467,18.76417" transform="translate(-298.24896 -100.65752)" fill="#e6e6e6"/><path id="bb0190e0-55f3-4399-babc-847ce9a60ec5" data-name="Path 2962" d="M364.992,796.23851c-1.01542-12.77166-1.882-27.14307,6.735-37.73552a29.77858,29.77858,0,0,1,8.65784-7.23779c1.04413-.58366,1.826,1.10841.77852,1.6907a27.66393,27.66393,0,0,0-12.1997,13.94507c-2.265,5.67471-2.85236,11.83543-2.77685,17.89882.04309,3.71021.34161,7.4182.6351,11.11874C366.91813,797.09843,365.08663,797.434,364.992,796.23851Z" transform="translate(-298.24896 -100.65752)" fill="#f2f2f2"/></g><circle id="bcc2575f-245f-418e-a0ee-03c1b2774ade" data-name="Ellipse 567" cx="47.86508" cy="334.45992" r="44.913" fill="#e4e4e4"/><path d="M356.64893,462.73321a45.91285,45.91285,0,1,1,45.91308-45.9126A45.96467,45.96467,0,0,1,356.64893,462.73321Zm0-89.82569A43.91285,43.91285,0,1,0,400.562,416.82061,43.96263,43.96263,0,0,0,356.64893,372.90752Z" transform="translate(-298.24896 -100.65752)" fill="#2f2e41"/><circle cx="20.75104" cy="170.34248" r="8" fill="#f2f2f2"/><circle cx="431.75104" cy="130.34248" r="8" fill="#f2f2f2"/><circle cx="484.75104" cy="414.34248" r="8" fill="#f2f2f2"/></svg>